<?xml version="1.0" encoding="UTF-8" standalone="no"?>
<!DOCTYPE svg PUBLIC "-//W3C//DTD SVG 1.1//EN"
 "http://www.w3.org/Graphics/SVG/1.1/DTD/svg11.dtd">
<!-- Generated by graphviz version 2.40.1 (20161225.0304)
 -->
<!-- Title: %3 Pages: 1 -->
<svg width="619pt" height="404pt"
 viewBox="0.00 0.00 618.78 404.00" xmlns="http://www.w3.org/2000/svg" xmlns:xlink="http://www.w3.org/1999/xlink">
<g id="graph0" class="graph" transform="scale(1 1) rotate(0) translate(4 400)">
<title>%3</title>
<polygon fill="#ffffff" stroke="transparent" points="-4,4 -4,-400 614.7845,-400 614.7845,4 -4,4"/>
<!-- [root] aws_instance.secondserver -->
<g id="node1" class="node">
<title>[root] aws_instance.secondserver</title>
<polygon fill="none" stroke="#000000" points="544.9059,-252 377.4701,-252 377.4701,-216 544.9059,-216 544.9059,-252"/>
<text text-anchor="middle" x="461.188" y="-229.8" font-family="Times,serif" font-size="14.00" fill="#000000">aws_instance.secondserver</text>
</g>
<!-- [root] aws_subnet.subnet2 -->
<g id="node4" class="node">
<title>[root] aws_subnet.subnet2</title>
<polygon fill="none" stroke="#000000" points="421.5645,-180 292.8115,-180 292.8115,-144 421.5645,-144 421.5645,-180"/>
<text text-anchor="middle" x="357.188" y="-157.8" font-family="Times,serif" font-size="14.00" fill="#000000">aws_subnet.subnet2</text>
</g>
<!-- [root] aws_instance.secondserver&#45;&gt;[root] aws_subnet.subnet2 -->
<g id="edge1" class="edge">
<title>[root] aws_instance.secondserver&#45;&gt;[root] aws_subnet.subnet2</title>
<path fill="none" stroke="#000000" d="M434.9444,-215.8314C421.8885,-206.7927 405.9345,-195.7476 391.8833,-186.0198"/>
<polygon fill="#000000" stroke="#000000" points="393.6374,-182.9773 383.4232,-180.1628 389.6529,-188.7326 393.6374,-182.9773"/>
</g>
<!-- [root] data.aws_ami.ubuntu -->
<g id="node6" class="node">
<title>[root] data.aws_ami.ubuntu</title>
<polygon fill="none" stroke="#000000" points="520.6606,-108 385.7153,-108 385.7153,-72 520.6606,-72 520.6606,-108"/>
<text text-anchor="middle" x="453.188" y="-85.8" font-family="Times,serif" font-size="14.00" fill="#000000">data.aws_ami.ubuntu</text>
</g>
<!-- [root] aws_instance.secondserver&#45;&gt;[root] data.aws_ami.ubuntu -->
<g id="edge2" class="edge">
<title>[root] aws_instance.secondserver&#45;&gt;[root] data.aws_ami.ubuntu</title>
<path fill="none" stroke="#000000" d="M460.1748,-215.7623C458.8103,-191.201 456.3684,-147.2474 454.7632,-118.3541"/>
<polygon fill="#000000" stroke="#000000" points="458.2424,-117.88 454.193,-108.0896 451.2531,-118.2684 458.2424,-117.88"/>
</g>
<!-- [root] aws_security_group.subnetsecurity -->
<g id="node2" class="node">
<title>[root] aws_security_group.subnetsecurity</title>
<polygon fill="none" stroke="#000000" points="359.8091,-252 146.5669,-252 146.5669,-216 359.8091,-216 359.8091,-252"/>
<text text-anchor="middle" x="253.188" y="-229.8" font-family="Times,serif" font-size="14.00" fill="#000000">aws_security_group.subnetsecurity</text>
</g>
<!-- [root] aws_vpc.environment&#45;example&#45;two -->
<g id="node5" class="node">
<title>[root] aws_vpc.environment&#45;example&#45;two</title>
<polygon fill="none" stroke="#000000" points="365.6782,-108 148.6978,-108 148.6978,-72 365.6782,-72 365.6782,-108"/>
<text text-anchor="middle" x="257.188" y="-85.8" font-family="Times,serif" font-size="14.00" fill="#000000">aws_vpc.environment&#45;example&#45;two</text>
</g>
<!-- [root] aws_security_group.subnetsecurity&#45;&gt;[root] aws_vpc.environment&#45;example&#45;two -->
<g id="edge3" class="edge">
<title>[root] aws_security_group.subnetsecurity&#45;&gt;[root] aws_vpc.environment&#45;example&#45;two</title>
<path fill="none" stroke="#000000" d="M253.6946,-215.7623C254.3768,-191.201 255.5978,-147.2474 256.4004,-118.3541"/>
<polygon fill="#000000" stroke="#000000" points="259.9064,-118.183 256.6855,-108.0896 252.9091,-117.9885 259.9064,-118.183"/>
</g>
<!-- [root] aws_subnet.subnet1 -->
<g id="node3" class="node">
<title>[root] aws_subnet.subnet1</title>
<polygon fill="none" stroke="#000000" points="128.5645,-252 -.1885,-252 -.1885,-216 128.5645,-216 128.5645,-252"/>
<text text-anchor="middle" x="64.188" y="-229.8" font-family="Times,serif" font-size="14.00" fill="#000000">aws_subnet.subnet1</text>
</g>
<!-- [root] aws_subnet.subnet1&#45;&gt;[root] aws_vpc.environment&#45;example&#45;two -->
<g id="edge4" class="edge">
<title>[root] aws_subnet.subnet1&#45;&gt;[root] aws_vpc.environment&#45;example&#45;two</title>
<path fill="none" stroke="#000000" d="M88.6316,-215.7623C123.1457,-190.0108 186.2309,-142.942 224.6679,-114.2637"/>
<polygon fill="#000000" stroke="#000000" points="227.021,-116.8749 232.9429,-108.0896 222.8349,-111.2645 227.021,-116.8749"/>
</g>
<!-- [root] aws_subnet.subnet2&#45;&gt;[root] aws_vpc.environment&#45;example&#45;two -->
<g id="edge5" class="edge">
<title>[root] aws_subnet.subnet2&#45;&gt;[root] aws_vpc.environment&#45;example&#45;two</title>
<path fill="none" stroke="#000000" d="M331.9538,-143.8314C319.4,-134.7927 304.0597,-123.7476 290.5488,-114.0198"/>
<polygon fill="#000000" stroke="#000000" points="292.5746,-111.1655 282.4141,-108.1628 288.4844,-116.8463 292.5746,-111.1655"/>
</g>
<!-- [root] provider.aws -->
<g id="node7" class="node">
<title>[root] provider.aws</title>
<polygon fill="none" stroke="#000000" points="354.188,-36 275.5797,-18 354.188,0 432.7963,-18 354.188,-36"/>
<text text-anchor="middle" x="354.188" y="-13.8" font-family="Times,serif" font-size="14.00" fill="#000000">provider.aws</text>
</g>
<!-- [root] aws_vpc.environment&#45;example&#45;two&#45;&gt;[root] provider.aws -->
<g id="edge6" class="edge">
<title>[root] aws_vpc.environment&#45;example&#45;two&#45;&gt;[root] provider.aws</title>
<path fill="none" stroke="#000000" d="M281.6652,-71.8314C295.5155,-61.5507 312.8627,-48.6744 327.1181,-38.0931"/>
<polygon fill="#000000" stroke="#000000" points="329.592,-40.6157 335.5357,-31.845 325.4199,-34.9949 329.592,-40.6157"/>
</g>
<!-- [root] data.aws_ami.ubuntu&#45;&gt;[root] provider.aws -->
<g id="edge7" class="edge">
<title>[root] data.aws_ami.ubuntu&#45;&gt;[root] provider.aws</title>
<path fill="none" stroke="#000000" d="M428.2061,-71.8314C413.9368,-61.4537 396.031,-48.4313 381.4051,-37.7943"/>
<polygon fill="#000000" stroke="#000000" points="383.3709,-34.8962 373.2249,-31.845 379.2537,-40.5574 383.3709,-34.8962"/>
</g>
<!-- [root] meta.count&#45;boundary (count boundary fixup) -->
<g id="node8" class="node">
<title>[root] meta.count&#45;boundary (count boundary fixup)</title>
<ellipse fill="none" stroke="#000000" cx="419.188" cy="-306" rx="191.6931" ry="18"/>
<text text-anchor="middle" x="419.188" y="-301.8" font-family="Times,serif" font-size="14.00" fill="#000000">[root] meta.count&#45;boundary (count boundary fixup)</text>
</g>
<!-- [root] meta.count&#45;boundary (count boundary fixup)&#45;&gt;[root] aws_instance.secondserver -->
<g id="edge8" class="edge">
<title>[root] meta.count&#45;boundary (count boundary fixup)&#45;&gt;[root] aws_instance.secondserver</title>
<path fill="none" stroke="#000000" d="M429.7864,-287.8314C434.4757,-279.7925 440.0908,-270.1666 445.2678,-261.2918"/>
<polygon fill="#000000" stroke="#000000" points="448.4314,-262.8146 450.4469,-252.4133 442.3849,-259.2875 448.4314,-262.8146"/>
</g>
<!-- [root] meta.count&#45;boundary (count boundary fixup)&#45;&gt;[root] aws_security_group.subnetsecurity -->
<g id="edge9" class="edge">
<title>[root] meta.count&#45;boundary (count boundary fixup)&#45;&gt;[root] aws_security_group.subnetsecurity</title>
<path fill="none" stroke="#000000" d="M378.5798,-288.3868C356.1247,-278.6472 328.0109,-266.4533 304.0977,-256.0813"/>
<polygon fill="#000000" stroke="#000000" points="305.3868,-252.8255 294.8199,-252.0572 302.6014,-259.2474 305.3868,-252.8255"/>
</g>
<!-- [root] meta.count&#45;boundary (count boundary fixup)&#45;&gt;[root] aws_subnet.subnet1 -->
<g id="edge10" class="edge">
<title>[root] meta.count&#45;boundary (count boundary fixup)&#45;&gt;[root] aws_subnet.subnet1</title>
<path fill="none" stroke="#000000" d="M329.4048,-290.0517C276.3736,-280.3374 207.7153,-267.2536 138.4132,-252.2192"/>
<polygon fill="#000000" stroke="#000000" points="139.148,-248.7973 128.6317,-250.085 137.6557,-255.6364 139.148,-248.7973"/>
</g>
<!-- [root] provider.aws (close) -->
<g id="node9" class="node">
<title>[root] provider.aws (close)</title>
<ellipse fill="none" stroke="#000000" cx="105.188" cy="-306" rx="104.3276" ry="18"/>
<text text-anchor="middle" x="105.188" y="-301.8" font-family="Times,serif" font-size="14.00" fill="#000000">[root] provider.aws (close)</text>
</g>
<!-- [root] provider.aws (close)&#45;&gt;[root] aws_instance.secondserver -->
<g id="edge11" class="edge">
<title>[root] provider.aws (close)&#45;&gt;[root] aws_instance.secondserver</title>
<path fill="none" stroke="#000000" d="M172.9868,-292.2879C228.0236,-281.1568 306.2338,-265.339 367.2964,-252.9893"/>
<polygon fill="#000000" stroke="#000000" points="368.2203,-256.3734 377.3281,-250.9604 366.8327,-249.5123 368.2203,-256.3734"/>
</g>
<!-- [root] provider.aws (close)&#45;&gt;[root] aws_security_group.subnetsecurity -->
<g id="edge12" class="edge">
<title>[root] provider.aws (close)&#45;&gt;[root] aws_security_group.subnetsecurity</title>
<path fill="none" stroke="#000000" d="M140.2619,-288.937C160.143,-279.2651 185.2643,-267.0439 206.7625,-256.5854"/>
<polygon fill="#000000" stroke="#000000" points="208.5786,-259.5941 216.0398,-252.0721 205.5163,-253.2995 208.5786,-259.5941"/>
</g>
<!-- [root] provider.aws (close)&#45;&gt;[root] aws_subnet.subnet1 -->
<g id="edge13" class="edge">
<title>[root] provider.aws (close)&#45;&gt;[root] aws_subnet.subnet1</title>
<path fill="none" stroke="#000000" d="M94.842,-287.8314C90.2643,-279.7925 84.7828,-270.1666 79.7291,-261.2918"/>
<polygon fill="#000000" stroke="#000000" points="82.6632,-259.3712 74.6733,-252.4133 76.5803,-262.8351 82.6632,-259.3712"/>
</g>
<!-- [root] root -->
<g id="node10" class="node">
<title>[root] root</title>
<ellipse fill="none" stroke="#000000" cx="262.188" cy="-378" rx="46.8976" ry="18"/>
<text text-anchor="middle" x="262.188" y="-373.8" font-family="Times,serif" font-size="14.00" fill="#000000">[root] root</text>
</g>
<!-- [root] root&#45;&gt;[root] meta.count&#45;boundary (count boundary fixup) -->
<g id="edge14" class="edge">
<title>[root] root&#45;&gt;[root] meta.count&#45;boundary (count boundary fixup)</title>
<path fill="none" stroke="#000000" d="M292.4592,-364.1177C314.8387,-353.8544 345.7568,-339.6754 371.4513,-327.892"/>
<polygon fill="#000000" stroke="#000000" points="373.0251,-331.0208 380.6558,-323.6708 370.1071,-324.658 373.0251,-331.0208"/>
</g>
<!-- [root] root&#45;&gt;[root] provider.aws (close) -->
<g id="edge15" class="edge">
<title>[root] root&#45;&gt;[root] provider.aws (close)</title>
<path fill="none" stroke="#000000" d="M231.9168,-364.1177C209.0611,-353.6361 177.2996,-339.0703 151.2919,-327.1432"/>
<polygon fill="#000000" stroke="#000000" points="152.5463,-323.868 141.9975,-322.8808 149.6282,-330.2308 152.5463,-323.868"/>
</g>
</g>
</svg>
